# xmcd
#
# Track frame offsets: 
#        150
#        19793
#        39419
#        55704
#        87244
#        107009
#        127742
#        157264
#        179936
#        199303
#        221076
#        244668
#
# Disc length: 3656 seconds
#
# Revision: 15
# Processed by: cddbd v1.5.2PL0 Copyright (c) Steve Scherf et al.
# Submitted via: ExactAudioCopy v1.3
#
DISCID=a80e460c
DTITLE=周杰倫 - 周杰倫2004無與倫比演唱會Live CD [CD2]
DYEAR=2005
DGENRE=Pop
TTITLE0=擱淺
TTITLE1=藉口
TTITLE2=瓦解
TTITLE3=雙刀+雙截棍+龍拳
TTITLE4=困獸之鬥
TTITLE5=倒帶
TTITLE6=簡單愛
TTITLE7=七里香
TTITLE8=外婆
TTITLE9=斷了的弦
TTITLE10=東風破
TTITLE11=軌跡
EXTD=YEAR: 2005
EXTT0=
EXTT1=
EXTT2=
EXTT3=
EXTT4=
EXTT5=
EXTT6=
EXTT7=
EXTT8=
EXTT9=
EXTT10=
EXTT11=
PLAYORDER=
